# xmcd
#
# Track frame offsets: 
#        150
#        2656
#        14597
#        33529
#        50916
#        69785
#        85625
#        104252
#        121114
#        139984
#        154973
#        172661
#        195076
#        220741
#        233001
#
# Disc length: 3308 seconds
#
# Revision: 0
# Processed by: cddbd v1.5.2PL0 Copyright (c) Steve Scherf et al.
# Submitted via: ExactAudioCopy v0.99pb5
#
DISCID=b70cea0f
DTITLE=Austin Lounge Lizards - Austin Lounge Lizards - 07_16_1992 - Wi
DTITLE=nterhawk Bluegrass Festival - Ancramdale, NY
DYEAR=1992
DGENRE=Bluegrass
TTITLE0=Intro
TTITLE1=Brain Damage
TTITLE2=Hot Tubs and Tears
TTITLE3=He's Just A Friend
TTITLE4=Dallas, Texas
TTITLE5=Industrial Strength Tranquilizer
TTITLE6=The Car Hank Died In
TTITLE7=Remington's Ride
TTITLE8=Jesus Loves Me (But He Can't Stand You)
TTITLE9=Rock and Roll Lawyer
TTITLE10=Put the Oak Ridge Boys In The Slammer
TTITLE11=Golden Triangle
TTITLE12=That Godforsaken Hellhole I Call Home
TTITLE13=The Chester Nimitz Oriental Garden Waltz
TTITLE14=Purple People Eater
EXTD=NAC300/CP4's > SONY D7
EXTT0=
EXTT1=
EXTT2=
EXTT3=
EXTT4=
EXTT5=
EXTT6=
EXTT7=
EXTT8=
EXTT9=
EXTT10=
EXTT11=
EXTT12=
EXTT13=
EXTT14=
PLAYORDER=
